<?xml version="1.0" encoding="utf-8"?>
<svg xmlns="http://www.w3.org/2000/svg" fill="none" height="100%" overflow="visible" preserveAspectRatio="none" style="display: block;" viewBox="0 0 70 70" width="100%">
<g id="public">
<mask height="70" id="mask0_0_92" maskUnits="userSpaceOnUse" style="mask-type:alpha" width="70" x="0" y="0">
<rect fill="var(--fill-0, #D9D9D9)" height="70" id="Bounding box" width="70" x="3.91831e-05" y="2.73151e-06"/>
</mask>
<g mask="url(#mask0_0_92)">
<path d="M35 65C30.85 65 26.95 64.2125 23.3 62.6375C19.65 61.0625 16.475 58.925 13.775 56.225C11.075 53.525 8.93754 50.35 7.36254 46.7C5.78754 43.05 5.00004 39.15 5.00004 35C5.00004 30.85 5.78754 26.95 7.36254 23.3C8.93754 19.65 11.075 16.475 13.775 13.775C16.475 11.075 19.65 8.9375 23.3 7.3625C26.95 5.7875 30.85 5 35 5C39.15 5 43.05 5.7875 46.7 7.3625C50.35 8.9375 53.525 11.075 56.225 13.775C58.925 16.475 61.0625 19.65 62.6375 23.3C64.2125 26.95 65 30.85 65 35C65 39.15 64.2125 43.05 62.6375 46.7C61.0625 50.35 58.925 53.525 56.225 56.225C53.525 58.925 50.35 61.0625 46.7 62.6375C43.05 64.2125 39.15 65 35 65ZM32 58.85V53C30.35 53 28.9375 52.4125 27.7625 51.2375C26.5875 50.0625 26 48.65 26 47V44L11.6 29.6C11.45 30.5 11.3125 31.4 11.1875 32.3C11.0625 33.2 11 34.1 11 35C11 41.05 12.9875 46.35 16.9625 50.9C20.9375 55.45 25.95 58.1 32 58.85ZM52.7 51.2C54.75 48.95 56.3125 46.4375 57.3875 43.6625C58.4625 40.8875 59 38 59 35C59 30.1 57.6375 25.625 54.9125 21.575C52.1875 17.525 48.55 14.6 44 12.8V14C44 15.65 43.4125 17.0625 42.2375 18.2375C41.0625 19.4125 39.65 20 38 20H32V26C32 26.85 31.7125 27.5625 31.1375 28.1375C30.5625 28.7125 29.85 29 29 29H23V35H41C41.85 35 42.5625 35.2875 43.1375 35.8625C43.7125 36.4375 44 37.15 44 38V47H47C48.3 47 49.475 47.3875 50.525 48.1625C51.575 48.9375 52.3 49.95 52.7 51.2Z" fill="var(--fill-0, #BCCF00)" id="public_2"/>
</g>
</g>
</svg>