<?xml version="1.0" encoding="utf-8"?>
<svg xmlns="http://www.w3.org/2000/svg" fill="none" overflow="visible" preserveAspectRatio="xMidYMid meet" style="display: block;" viewBox="0 0 177 46" width="177" height="46">
<g id="Group">
<g id="Group_2">
<g id="Group_3">
<path d="M154.742 45.9945C167.165 45.9945 177.235 35.7085 177.235 23.02C177.235 10.3334 167.164 0.0474208 154.742 0.0474208C142.319 0.0480366 33.0257 0 22.5128 0C10.0794 0 0 10.2848 0 22.9732C0 35.661 10.0794 46 22.5128 46C33.0366 46 142.319 45.9945 154.742 45.9945Z" fill="var(--fill-0, #003D6A)" id="Vector"/>
</g>
</g>
<g id="Group_4">
<path d="M27.1298 26.5063C28.4437 27.4695 29.6991 27.9616 30.8339 27.9616C31.71 27.9616 32.1888 27.5342 32.1888 26.9565C32.1888 25.3725 27.1304 25.1582 27.1304 20.878C27.1304 19.0366 28.3255 16.4901 31.9301 16.4901C33.5431 16.4901 34.857 16.9612 36.2113 18.0525V21.9053C34.8968 20.599 33.841 19.9998 32.8261 19.9998C32.0296 19.9998 31.5117 20.386 31.5117 21.0061C31.5117 22.7829 36.7491 22.9762 36.7491 27.1283C36.7491 29.2253 35.3743 31.4732 31.8306 31.4732C30.0784 31.4732 28.5058 31.1517 27.1316 30.4675V26.5063H27.1298Z" fill="var(--fill-0, white)" id="Vector_2"/>
<path d="M51.0307 30.1879C49.6167 31.0446 47.8439 31.472 45.9729 31.472C40.2971 31.472 38.3464 27.384 38.3464 24.0454C38.3464 19.7862 41.2335 16.4895 46.2117 16.4895C48.0037 16.4895 49.5968 16.8325 50.9107 17.4742V21.7335C49.5371 20.7919 48.3426 20.3854 46.9684 20.3854C44.5788 20.3854 43.1051 21.755 43.1051 23.9814C43.1051 26.1646 44.6186 27.5773 47.0088 27.5773C48.3824 27.5773 49.4973 27.2134 51.0313 26.292V30.1879H51.0307Z" fill="var(--fill-0, white)" id="Vector_3"/>
<path d="M53.0681 16.6823H57.828V21.9897H63.0643V16.6823H67.8236V31.2792H63.0643V25.7575H57.828V31.2792H53.0681V16.6823Z" fill="var(--fill-0, white)" id="Vector_4"/>
<path d="M84.3597 24.58C84.3597 28.8614 81.8911 31.4714 77.1722 31.4714C72.4515 31.4714 69.8038 29.0954 69.8038 25.1145V16.6823H74.5631V24.4728C74.5631 26.5285 75.5791 27.5121 77.0522 27.5121C78.506 27.5121 79.6016 26.5285 79.6016 24.216V16.6823H84.3609V24.58H84.3597Z" fill="var(--fill-0, white)" id="Vector_5"/>
<path d="M86.4647 16.6823H90.5276L97.3973 24.1729V16.6823H101.956V31.2792H97.8948L91.0244 23.788L91.0256 31.2792H86.4647V16.6823Z" fill="var(--fill-0, white)" id="Vector_6"/>
<path d="M104.09 16.6823H108.849V23.2953L114.285 16.6823H119.283L113.747 23.4671L119.483 31.2792H113.808L108.889 24.4519H108.849V31.2792H104.09V16.6823Z" fill="var(--fill-0, white)" id="Vector_7"/>
</g>
<g id="Group_5">
<path d="M131.306 24.7419C131.125 24.1809 131.024 23.5971 131.024 23.0003C131.024 19.9543 133.448 17.4761 136.428 17.4761C138.095 17.4761 139.678 18.2798 140.7 19.626L150.049 14.5348L150.051 4.33931L140.425 9.54143C139.116 9.13558 137.771 8.92989 136.422 8.92989C128.812 8.92989 122.621 15.2572 122.621 23.0342C122.621 25.0493 123.032 26.9917 123.833 28.8121L131.306 24.7419Z" fill="var(--fill-0, #009EE0)" id="Vector_8"/>
<path d="M136.409 19.3175C134.407 19.3175 132.778 20.9815 132.778 23.0274C132.778 25.072 134.407 26.7355 136.409 26.7355C138.412 26.7355 140.04 25.072 140.04 23.0274C140.04 20.9815 138.411 19.3175 136.409 19.3175Z" fill="var(--fill-0, white)" id="Vector_9"/>
<path d="M141.558 21.2624C141.736 21.8173 141.834 22.3949 141.834 22.9855C141.834 26.0309 139.41 28.5079 136.429 28.5079C134.768 28.5079 133.189 27.7104 132.17 26.3752L122.822 31.4658L122.822 41.6773L132.447 36.4746C133.756 36.8798 135.102 37.0849 136.45 37.0849C144.06 37.0849 150.251 30.7576 150.251 22.98C150.251 20.9612 149.839 19.0151 149.033 17.191L141.558 21.2624Z" fill="var(--fill-0, #009EE0)" id="Vector_10"/>
</g>
</g>
</svg>