<?xml version="1.0" encoding="utf-8"?>
<svg xmlns="http://www.w3.org/2000/svg" fill="none" height="100%" overflow="visible" preserveAspectRatio="none" style="display: block;" viewBox="0 0 70 70" width="100%">
<g id="pan_tool_alt">
<mask height="70" id="mask0_0_110" maskUnits="userSpaceOnUse" style="mask-type:alpha" width="71" x="0" y="0">
<rect fill="var(--fill-0, #D9D9D9)" height="70" id="Bounding box" width="70" x="0.000204958" y="2.73151e-06"/>
</mask>
<g mask="url(#mask0_0_110)">
<path d="M29.0195 61.2501C27.707 61.2501 26.4553 60.9706 25.2643 60.4116C24.0733 59.8526 23.0646 59.0626 22.2382 58.0418L3.35283 34.7814L5.24866 32.9585C6.17227 32.0348 7.26602 31.5001 8.52991 31.3543C9.7938 31.2085 10.9362 31.5001 11.957 32.2293L20.4153 38.1355V8.75012C20.4153 7.92373 20.6948 7.23103 21.2539 6.672C21.8129 6.11297 22.5056 5.83346 23.332 5.83346C24.1584 5.83346 24.8511 6.11297 25.4101 6.672C25.9691 7.23103 26.2487 7.92373 26.2487 8.75012V49.3647L18.1549 43.6772L26.7591 54.323C27.0507 54.6633 27.391 54.9307 27.7799 55.1251C28.1688 55.3196 28.582 55.4168 29.0195 55.4168H49.582C51.1862 55.4168 52.5594 54.8456 53.7018 53.7033C54.8441 52.5609 55.4153 51.1876 55.4153 49.5835V29.1668C55.4153 28.3404 55.6948 27.6477 56.2539 27.0887C56.8129 26.5296 57.5056 26.2501 58.332 26.2501C59.1584 26.2501 59.8511 26.5296 60.4101 27.0887C60.9691 27.6477 61.2487 28.3404 61.2487 29.1668V49.5835C61.2487 52.7918 60.1063 55.5383 57.8216 57.823C55.5369 60.1078 52.7903 61.2501 49.582 61.2501H29.0195ZM32.082 37.9168V20.4168C32.082 19.5904 32.3615 18.8977 32.9205 18.3387C33.4796 17.7796 34.1723 17.5001 34.9987 17.5001C35.8251 17.5001 36.5178 17.7796 37.0768 18.3387C37.6358 18.8977 37.9153 19.5904 37.9153 20.4168V37.9168H32.082ZM43.7487 37.9168V23.3335C43.7487 22.5071 44.0282 21.8144 44.5872 21.2553C45.1462 20.6963 45.8389 20.4168 46.6653 20.4168C47.4917 20.4168 48.1844 20.6963 48.7435 21.2553C49.3025 21.8144 49.582 22.5071 49.582 23.3335V37.9168H43.7487Z" fill="var(--fill-0, #BCCF00)" id="pan_tool_alt_2"/>
</g>
</g>
</svg>