<svg width="56" height="54" viewBox="0 0 56 54" fill="none" xmlns="http://www.w3.org/2000/svg">
  <path d="M29.166 0C30.2561 0 31.2055 0.598491 31.7061 1.48438C31.8295 1.46843 31.9552 1.45801 32.083 1.45801H47.6387L54.25 6.41602C55.5386 7.38252 55.7995 9.21135 54.833 10.5C53.8665 11.7884 52.0386 12.0493 50.75 11.083L45.6943 7.29102H32.083V18.958H45.6943L50.75 15.166C52.0386 14.1998 53.8666 14.4615 54.833 15.75C55.7993 17.0386 55.5384 18.8665 54.25 19.833L47.6387 24.791H32.083C31.9551 24.791 31.8296 24.7796 31.7061 24.7637C31.2056 25.6501 30.2565 26.25 29.166 26.25C27.5553 26.2498 26.25 24.9437 26.25 23.333V16.041H16.916C16.7702 16.4298 16.6125 16.7946 16.4424 17.1348C16.2723 17.4749 16.0415 17.8398 15.75 18.2285L30.333 45.208H40.833V53.958H2.91602V45.208H11.958L4.52051 20.8535C3.20808 20.1244 2.12605 19.0552 1.27539 17.6455C0.424817 16.2359 4.9812e-05 14.729 0 13.125C0 10.6944 0.850369 8.62815 2.55176 6.92676C4.25314 5.22538 6.31946 4.375 8.75 4.375C10.6457 4.37506 12.3348 4.92194 13.8174 6.01562C15.2999 7.10933 16.3327 8.50673 16.916 10.208H26.25V2.91602C26.2502 1.30544 27.5554 0.000176648 29.166 0ZM17.9375 45.208H23.625L11.083 21.875H10.791L17.9375 45.208ZM8.75 10.208C7.92362 10.208 7.2309 10.4879 6.67188 11.0469C6.11285 11.6059 5.83301 12.2986 5.83301 13.125C5.83307 13.9513 6.11291 14.6442 6.67188 15.2031C7.23085 15.762 7.92376 16.041 8.75 16.041C9.57624 16.0409 10.2692 15.7621 10.8281 15.2031C11.3871 14.6442 11.666 13.9513 11.666 13.125C11.666 12.2988 11.387 11.6058 10.8281 11.0469C10.2692 10.4879 9.57624 10.2081 8.75 10.208Z" fill="#BCCF00"/>
</svg>
